<svg width="48" height="48" viewBox="0 0 48 48" fill="none" xmlns="http://www.w3.org/2000/svg">
<g clip-path="url(#clip0_1332_198)">
<path d="M21.9824 33.7812C22.1223 33.6612 22.1924 33.5011 22.1924 33.2713C22.1924 33.0512 22.1223 32.8814 21.9824 32.7614C21.8425 32.6414 21.6225 32.5713 21.3323 32.5713H20.5723V33.9612H21.3323C21.6225 33.9612 21.8425 33.9012 21.9824 33.7812V33.7812Z" fill="black"/>
<path d="M13.4224 35.2917C13.8326 35.5316 14.4123 35.5316 14.8325 35.2917C15.0324 35.1717 15.2026 35.0018 15.3226 34.7817C15.4527 34.5519 15.5127 34.2917 15.5127 34.0019C15.5127 33.7117 15.4527 33.4518 15.3226 33.2216C15.2026 33.0015 15.0324 32.8317 14.8325 32.7117C14.6226 32.5917 14.3826 32.5317 14.1224 32.5317C13.8622 32.5317 13.6324 32.5917 13.4224 32.7117C13.2125 32.8317 13.0423 33.0019 12.9223 33.2216C12.8023 33.4518 12.7322 33.7117 12.7322 34.0019C12.7322 34.2917 12.8023 34.5519 12.9223 34.7817C13.0426 35.0015 13.2125 35.1717 13.4224 35.2917H13.4224Z" fill="black"/>
<path d="M4.25154 44.0013H43.7528C43.8909 44.0013 44.0029 43.8893 44.0029 43.7512V24.2506C44.0029 24.1124 43.8909 24.0005 43.7528 24.0005H4.25154C4.11342 24.0005 4.00146 24.1124 4.00146 24.2506V43.7512C4.00146 43.8893 4.11342 44.0013 4.25154 44.0013V44.0013ZM31.5328 31.2009C31.5328 31.1308 31.5928 31.0708 31.6629 31.0708H32.9631C33.0032 31.0708 33.0332 31.0906 33.0632 31.1206L35.3132 33.8408V31.2009C35.3132 31.1308 35.363 31.0708 35.4331 31.0708H36.9831C37.0532 31.0708 37.1132 31.1308 37.1132 31.2009V36.801C37.1132 36.8711 37.0532 36.9311 36.9831 36.9311H35.6832C35.643 36.9311 35.613 36.9112 35.5831 36.8812L33.3331 34.161V36.8009C33.3331 36.8711 33.2828 36.931 33.2131 36.931H31.6631C31.593 36.931 31.533 36.871 31.533 36.8009L31.5328 31.2009ZM25.3627 31.2009C25.3627 31.1308 25.4126 31.0708 25.4827 31.0708H29.8729C29.943 31.0708 30.003 31.1308 30.003 31.2009V32.4209C30.003 32.491 29.943 32.551 29.8729 32.551H27.173V33.2409H29.5429C29.6131 33.2409 29.6629 33.3009 29.6629 33.371V34.5509C29.6629 34.621 29.6131 34.681 29.5429 34.681H27.173V35.4511H29.9831C30.0532 35.4511 30.1031 35.5111 30.1031 35.5812V36.8013C30.1031 36.8714 30.0533 36.9314 29.9831 36.9314H25.4832C25.4131 36.9314 25.3632 36.8714 25.3632 36.8013L25.3627 31.2009ZM18.7424 31.2009C18.7424 31.1308 18.8024 31.0708 18.8624 31.0708H21.4326C21.9526 31.0708 22.4127 31.1607 22.8026 31.3407C23.1926 31.5207 23.5027 31.7708 23.7126 32.1007C23.9327 32.4408 24.0425 32.8307 24.0425 33.2708C24.0425 33.7208 23.9327 34.1111 23.7126 34.441C23.5026 34.7611 23.1926 35.021 22.8026 35.201C22.4127 35.3708 21.9527 35.4608 21.4326 35.4608H20.5725V36.8009C20.5725 36.871 20.5226 36.9309 20.4525 36.9309H18.8624C18.8024 36.9309 18.7424 36.871 18.7424 36.8009L18.7424 31.2009ZM11.3119 32.4408C11.592 31.9808 11.982 31.6107 12.472 31.3509C12.9519 31.0907 13.512 30.9609 14.122 30.9609C14.7321 30.9609 15.2922 31.091 15.7819 31.3509C16.272 31.6111 16.6518 31.9808 16.9419 32.4408C17.222 32.9008 17.3619 33.4307 17.3619 34.0009C17.3619 34.581 17.222 35.101 16.9419 35.5611C16.6518 36.0211 16.2719 36.3912 15.7819 36.651C15.2919 36.9112 14.7317 37.041 14.122 37.041C13.512 37.041 12.9519 36.9109 12.472 36.651C11.9819 36.3912 11.592 36.0211 11.3119 35.5611C11.0319 35.101 10.8819 34.581 10.8819 34.0009C10.8822 33.4209 11.0322 32.9009 11.3119 32.4408V32.4408Z" fill="black"/>
<path d="M1.99872 48.0019H46.0001C47.1002 48.0019 48 47.1017 48 46.002V22.0013C48 20.9012 47.1002 20.0014 46.0001 20.0014H42.4129L29.283 6.8715C28.953 7.46164 28.5331 7.99144 28.0329 8.44173L39.5931 20.001H8.41357L19.9827 8.44083C19.4825 8.00067 19.0626 7.46071 18.7226 6.87061L5.59268 20.0014H1.99989C0.889671 20.0014 1.02455e-07 20.9012 1.02455e-07 22.0013V46.002C-0.000348659 47.1021 0.889743 48.0023 1.99989 48.0023L1.99872 48.0019ZM1.99872 22.2511C1.99872 22.1133 2.11068 22.0014 2.24846 22.0014H45.7498C45.888 22.0014 45.9999 22.1133 45.9999 22.2514V45.7522C45.9999 45.8903 45.888 46.0023 45.7498 46.0023L2.24846 46.0019C2.11068 46.0019 1.99872 45.89 1.99872 45.7522V22.2511Z" fill="black"/>
<path d="M27.9997 4.00022C27.9997 6.20939 26.2087 8.00043 23.9995 8.00043C21.7903 8.00043 19.9993 6.20939 19.9993 4.00022C19.9993 1.79104 21.7903 0 23.9995 0C26.2087 0 27.9997 1.79104 27.9997 4.00022Z" fill="black"/>
</g>
<defs>
<clipPath id="clip0_1332_198">
<rect width="48" height="48" fill="white"/>
</clipPath>
</defs>
</svg>
